<svg width="31" height="31" viewBox="0 0 31 31" fill="none" xmlns="http://www.w3.org/2000/svg">
<circle cx="15.4998" cy="15.5" r="15.5" fill="url(#paint0_linear_13_44)"/>
<path d="M12.0251 21.9246C12.0245 22.1505 12.0848 22.3723 12.1997 22.5668C12.3146 22.7612 12.4799 22.9211 12.678 23.0295C12.8689 23.1397 13.0854 23.1977 13.3058 23.1977C13.5262 23.1977 13.7427 23.1397 13.9336 23.0295L22.961 17.1284C23.1372 17.0146 23.2821 16.8584 23.3824 16.6742C23.4827 16.49 23.5353 16.2835 23.5353 16.0737C23.5353 15.864 23.4827 15.6575 23.3824 15.4733C23.2821 15.2891 23.1372 15.1329 22.961 15.0191L13.9084 9.16821C13.7176 9.05801 13.5011 9 13.2807 9C13.0603 9 12.8438 9.05801 12.6529 9.16821C12.4547 9.27663 12.2895 9.43648 12.1746 9.63093C12.0597 9.82539 11.9994 10.0472 12 10.2731L12.0251 21.9246Z" fill="white" stroke="white" stroke-linecap="round" stroke-linejoin="round"/>
<defs>
<linearGradient id="paint0_linear_13_44" x1="-3.9971" y1="-4.76924" x2="40.9933" y2="-2.0104" gradientUnits="userSpaceOnUse">
<stop stop-color="#B5179E"/>
<stop offset="1" stop-color="#7209B7"/>
</linearGradient>
</defs>
</svg>
